<svg width="20" height="20" viewBox="0 0 20 20" fill="none" xmlns="http://www.w3.org/2000/svg">
<g clip-path="url(#clip0_4662_59362)">
<ellipse cx="10" cy="10.8334" rx="7.5" ry="7.5" stroke="#262626" stroke-width="1.5" stroke-linecap="round"/>
<path d="M4.16667 15.8334L2.5 17.5M15.8333 15.8334L17.5 17.5" stroke="#262626" stroke-width="1.5" stroke-linecap="round" stroke-linejoin="round"/>
<path d="M15.8334 2.97475L16.3297 2.72663C17.034 2.37443 17.2987 2.41474 17.8587 2.97475C18.4187 3.53475 18.459 3.79937 18.1068 4.50375L17.8587 5M4.16675 2.97475L3.6705 2.72663C2.96612 2.37443 2.7015 2.41474 2.1415 2.97475C1.58149 3.53475 1.54118 3.79937 1.89337 4.50375L2.1415 5" stroke="#262626" stroke-width="1.5" stroke-linecap="round"/>
<path d="M10 7.91669V11.25L11.6667 12.9167" stroke="#262626" stroke-width="1.5" stroke-linecap="round" stroke-linejoin="round"/>
<path d="M10 2.91669V1.66669" stroke="#262626" stroke-width="1.5" stroke-linecap="round" stroke-linejoin="round"/>
<path d="M8.3335 1.66669H11.6668" stroke="#262626" stroke-width="1.5" stroke-linecap="round" stroke-linejoin="round"/>
</g>
<defs>
<clipPath id="clip0_4662_59362">
<rect width="20" height="20" fill="white"/>
</clipPath>
</defs>
</svg>
