<svg width="16" height="16" viewBox="0 0 16 16" fill="none" xmlns="http://www.w3.org/2000/svg">
<path d="M9.33325 4.00004H14.6666M11.9999 1.33337L11.9999 6.66671" stroke="#4179F0" stroke-width="1.5" stroke-linecap="round" stroke-linejoin="round"/>
<path d="M4.06579 13C3.19905 12.9147 2.54976 12.6544 2.1143 12.219C1.33325 11.4379 1.33325 10.1808 1.33325 7.66667V7.33333C1.33325 4.81918 1.33325 3.5621 2.1143 2.78105C2.89535 2 4.15243 2 6.66658 2H7.66658M4.33325 12C4.19628 12.6679 3.58505 14.111 4.21038 14.5767C4.53725 14.8145 5.05811 14.5605 6.09983 14.0526C6.83093 13.6961 7.57073 13.2873 8.36965 13.1034C8.66201 13.0368 8.95961 13.0083 9.33325 13C11.8474 13 13.1045 13 13.8855 12.219C14.6313 11.4732 14.665 10.2935 14.6665 8" stroke="#4179F0" stroke-width="1.5" stroke-linecap="round"/>
<path d="M5.33325 9.33333H9.33325M5.33325 6H7.33325" stroke="#4179F0" stroke-width="1.5" stroke-linecap="round" stroke-linejoin="round"/>
</svg>
