<svg width="20" height="20" viewBox="0 0 20 20" fill="none" xmlns="http://www.w3.org/2000/svg">
<g clip-path="url(#clip0_4662_59357)">
<path d="M16.6667 7.50002C15.9529 4.15093 12.4928 1.66669 9.16768 1.66669C6.21537 1.66669 3.40811 3.41598 2.23864 6.14974C0.0757173 11.2058 4.51093 14.6883 7.82049 17.8058C8.1819 18.1442 8.66495 18.3334 9.16768 18.3334C9.62618 18.3334 10.0683 18.176 10.4167 17.8916" stroke="#262626" stroke-width="1.5" stroke-linecap="round"/>
<path d="M11.6667 7.66351C11.1563 6.81649 10.2276 6.25 9.16667 6.25C7.55584 6.25 6.25 7.55584 6.25 9.16667C6.25 10.3302 6.93127 11.3345 7.91667 11.8027" stroke="#262626" stroke-width="1.5" stroke-linecap="round"/>
<path d="M14.1667 13.3334H14.1742" stroke="#262626" stroke-width="2" stroke-linecap="round" stroke-linejoin="round"/>
<path d="M14.9151 18.0432C14.7144 18.2293 14.446 18.3334 14.1668 18.3334C13.8875 18.3334 13.6192 18.2293 13.4184 18.0432C11.5799 16.3286 9.11618 14.4132 10.3177 11.6324C10.9673 10.1288 12.5268 9.16669 14.1668 9.16669C15.8068 9.16669 17.3662 10.1288 18.0158 11.6324C19.2158 14.4097 16.7581 16.3345 14.9151 18.0432Z" stroke="#262626" stroke-width="1.5"/>
</g>
<defs>
<clipPath id="clip0_4662_59357">
<rect width="20" height="20" fill="white"/>
</clipPath>
</defs>
</svg>
