<svg width="20" height="20" viewBox="0 0 20 20" fill="none" xmlns="http://www.w3.org/2000/svg">
<path d="M3.95031 11.9738L5.57793 10.818C6.03704 10.492 6.50254 10.2735 7.03361 10.1321C7.64334 9.96969 7.91667 9.63697 7.91667 8.92585C7.91667 7.1219 12.0833 6.92995 12.0833 8.92585C12.0833 9.63697 12.3567 9.96969 12.9664 10.1321C13.5017 10.2746 13.9666 10.4945 14.4221 10.818L16.0497 11.9738C16.7861 12.4968 17.1289 12.7496 17.3201 13.1516C17.5 13.5298 17.5 13.9733 17.5 14.8604C17.5 16.4551 17.5 17.2525 17.0535 17.7636C16.5127 18.3828 15.1067 18.3296 14.2431 18.3296H5.75694C4.89331 18.3296 3.51591 18.4155 2.9465 17.7636C2.5 17.2525 2.5 16.4551 2.5 14.8604C2.5 13.9733 2.5 13.5298 2.67987 13.1516C2.87105 12.7496 3.21385 12.4968 3.95031 11.9738Z" stroke="#3D3D3D" stroke-width="1.5"/>
<path d="M11.6668 14.1667C11.6668 15.0871 10.9206 15.8333 10.0002 15.8333C9.07969 15.8333 8.3335 15.0871 8.3335 14.1667C8.3335 13.2462 9.07969 12.5 10.0002 12.5C10.9206 12.5 11.6668 13.2462 11.6668 14.1667Z" stroke="#3D3D3D" stroke-width="1.5"/>
<path d="M5.8002 3.08144C4.7015 3.39512 3.91162 3.78427 3.18879 4.2538C2.0444 4.99716 1.55377 6.3367 1.68847 7.62927C1.7454 8.17557 2.18395 8.43678 2.69249 8.29546C3.07884 8.18809 3.46581 8.08358 3.84975 7.9697C4.97263 7.63664 5.23674 7.23177 5.39278 6.08237L5.8002 3.08144ZM5.8002 3.08144C8.51557 2.30619 11.4846 2.30619 14.2 3.08144M14.2 3.08144C15.2987 3.39512 16.0885 3.78427 16.8114 4.2538C17.9558 4.99716 18.4464 6.3367 18.3117 7.62927C18.2548 8.17557 17.8162 8.43678 17.3077 8.29546C16.9213 8.18809 16.5343 8.08358 16.1504 7.9697C15.0275 7.63664 14.7634 7.23177 14.6074 6.08237L14.2 3.08144Z" stroke="#3D3D3D" stroke-width="1.5" stroke-linejoin="round"/>
</svg>
